<?xml version="1.0" encoding="UTF-8"?>
<!DOCTYPE svg PUBLIC "-//W3C//DTD SVG 1.1//EN" "http://www.w3.org/Graphics/SVG/1.1/DTD/svg11.dtd">
<!-- Creator: CorelDRAW X6 -->
<svg xmlns="http://www.w3.org/2000/svg" xml:space="preserve" width="169.84mm" height="169.181mm" version="1.1" style="shape-rendering:geometricPrecision; text-rendering:geometricPrecision; image-rendering:optimizeQuality; fill-rule:evenodd; clip-rule:evenodd"
viewBox="0 0 7211 7183"
 xmlns:xlink="http://www.w3.org/1999/xlink">
 <defs>
  <style type="text/css">
   <![CDATA[
    .fil0 {fill:#05336E;fill-rule:nonzero}
   ]]>
  </style>
 </defs>
 <g id="Layer_x0020_1">
  <metadata id="CorelCorpID_0Corel-Layer"/>
  <g id="_1153555360">
   <path class="fil0" d="M4047 3801c8,64 10,137 10,320 0,200 -2,280 -10,346l144 0c-8,-66 -9,-146 -9,-346 0,-183 1,-256 9,-320l-144 0z"/>
   <path class="fil0" d="M4569 4154c70,0 112,50 112,135 0,81 -42,129 -108,129 -68,0 -112,-50 -112,-135 0,-81 42,-129 108,-129zm0 -304c61,0 96,46 96,122 0,73 -35,118 -92,118 -60,0 -96,-46 -96,-123 0,-73 35,-117 92,-117zm-246 440c0,119 91,189 245,189 158,0 251,-71 251,-195 0,-81 -47,-139 -131,-165 71,-26 111,-79 111,-154 0,-110 -83,-176 -225,-176 -145,0 -232,67 -232,182 0,72 40,124 112,149 -84,27 -131,86 -131,170z"/>
   <path class="fil0" d="M5158 4154c70,0 113,50 113,135 0,81 -42,129 -108,129 -69,0 -112,-50 -112,-135 0,-81 42,-129 107,-129zm0 -304c61,0 97,46 97,122 0,73 -36,118 -92,118 -61,0 -97,-46 -97,-123 0,-73 36,-117 92,-117zm-245 440c0,119 90,189 244,189 159,0 252,-71 252,-195 0,-81 -47,-139 -131,-165 70,-26 110,-79 110,-154 0,-110 -83,-176 -225,-176 -145,0 -231,67 -231,182 0,72 39,124 111,149 -83,27 -130,86 -130,170z"/>
   <path class="fil0" d="M5761 4415c-68,0 -111,-57 -118,-233 23,-26 60,-57 109,-57 71,0 107,46 107,138 0,94 -37,152 -98,152zm34 -377c-74,0 -123,34 -153,66 4,-150 48,-253 155,-253 85,0 128,80 128,80l0 -118c0,0 -48,-24 -135,-24 -169,0 -288,129 -288,357 0,231 95,333 253,333 149,0 236,-91 236,-234 0,-133 -73,-207 -196,-207z"/>
   <path class="fil0" d="M5461 3144c-86,-332 -257,-646 -517,-906 -777,-778 -2039,-778 -2816,0 -351,351 -540,800 -574,1259l-227 21 -123 9c28,-525 241,-1041 642,-1441 861,-862 2258,-862 3120,0 300,300 494,665 584,1049l-89 9zm-941 -547c-593,-593 -1553,-593 -2146,0 -243,243 -383,548 -426,864l-392 36c48,-375 214,-737 502,-1025 693,-693 1815,-693 2508,0 207,207 350,453 433,713l-114 11c-71,-219 -191,-425 -365,-599zm-2553 863c46,-244 161,-476 350,-665 500,-500 1312,-500 1812,0 131,131 226,282 287,443l-2449 222zm3358 -1586c-944,-944 -2473,-944 -3417,0 -458,457 -692,1053 -706,1653l0 0c0,2 0,4 0,6 0,26 -1,52 -1,78 0,-10 1,-21 1,-32 -1,206 22,414 76,622 335,1291 1654,2066 2945,1731 609,-158 1102,-535 1419,-1024l-5 0c-290,416 -723,735 -1252,873 -1180,306 -2384,-402 -2690,-1581 -59,-226 -78,-451 -66,-672l100 0c-5,181 13,364 61,548 274,1057 1354,1691 2411,1417 386,-100 713,-310 962,-585l-3 0c-316,300 -743,485 -1214,485 -507,0 -964,-214 -1286,-557 -6,-5 -11,-11 -16,-16 -6,-6 -11,-13 -17,-19 -183,-203 -322,-452 -395,-735 -47,-181 -62,-361 -52,-538l113 0c-8,150 5,304 45,457 211,811 1039,1298 1850,1087 141,-36 271,-93 390,-164l-28 0c-160,70 -336,109 -522,109 -727,0 -1316,-589 -1316,-1316 0,-59 6,-116 14,-173l343 0 1422 0 0 0 464 0 0 0 651 0 425 0 0 0c-14,-600 -248,-1196 -706,-1654z"/>
   <path class="fil0" d="M1764 6569c-13,-8 -23,-18 -31,-29 -8,-12 -14,-24 -17,-38 -3,-13 -4,-27 -2,-41 3,-14 8,-27 16,-40 7,-13 17,-23 29,-31 12,-8 24,-14 37,-17 14,-3 28,-3 42,-1 14,2 27,7 40,14 12,8 22,18 30,30 9,11 14,24 17,37 3,14 4,27 2,41 -2,15 -7,28 -15,40 -8,13 -18,24 -30,32 -11,8 -24,14 -37,17 -14,3 -27,3 -41,1 -14,-2 -27,-7 -40,-15z"/>
   <path class="fil0" d="M1451 6249c-19,-17 -38,-33 -57,-48 -19,-16 -39,-31 -60,-44 3,-2 5,-4 8,-7 2,-2 5,-5 8,-8 2,-3 4,-5 5,-8 2,-3 3,-6 5,-9 11,12 24,25 37,37 12,12 24,22 34,31 7,5 14,11 21,16 7,6 13,11 20,16 9,-10 18,-21 27,-32 9,-10 18,-21 27,-31 5,-7 11,-14 17,-21 5,-7 11,-15 17,-22 6,-7 11,-14 16,-20 4,-6 8,-10 11,-14 -16,-13 -34,-27 -55,-44 -20,-16 -47,-35 -78,-56 3,-2 6,-4 8,-7 2,-2 5,-5 8,-8 3,-4 5,-7 7,-9 1,-2 2,-5 4,-8 10,11 20,21 31,30 11,10 23,19 34,29 19,15 38,31 57,46 19,15 39,30 58,45 -8,8 -16,17 -25,26 -8,9 -18,19 -29,32 -11,12 -25,27 -40,45 -15,18 -34,40 -56,66 -10,12 -21,25 -32,39 -12,14 -23,29 -35,43 -11,15 -22,29 -33,43 -11,14 -22,28 -31,40 -16,-16 -32,-31 -48,-45 -17,-14 -34,-28 -51,-42 -12,-11 -25,-21 -37,-31 -13,-10 -26,-19 -39,-28 3,-2 5,-4 8,-7 3,-2 5,-5 8,-8 3,-4 5,-7 6,-9 2,-3 3,-5 5,-8 4,4 8,9 12,14 4,4 9,9 14,15 5,5 11,11 19,18 7,7 16,14 27,23 9,7 16,14 22,19 6,5 15,11 26,19 4,-4 8,-8 11,-12 3,-3 7,-7 10,-11 3,-4 7,-8 11,-13 4,-5 9,-11 15,-19 7,-7 12,-14 16,-19 5,-5 9,-10 12,-14 4,-5 8,-9 11,-14 4,-4 8,-10 13,-16z"/>
   <path class="fil0" d="M1356 5881c-10,-11 -18,-20 -23,-25 -6,-6 -12,-12 -17,-17 -6,-6 -13,-12 -20,-20 -7,-7 -15,-14 -23,-21 -7,-6 -15,-13 -23,-19 -8,-7 -15,-12 -20,-16 2,-1 5,-3 7,-5 3,-2 6,-5 9,-8 4,-3 7,-7 9,-9 2,-3 3,-5 5,-8 6,8 13,15 19,21 6,7 13,14 20,22 7,8 14,16 23,25 9,9 19,19 31,32 10,9 18,18 25,24 7,7 13,13 19,18 6,5 11,10 16,14 5,5 11,10 17,16 -15,13 -29,26 -43,39 -14,12 -28,25 -41,38 -14,13 -27,26 -41,40 -13,13 -28,27 -42,41 -15,16 -31,31 -46,47 -15,15 -29,30 -42,44 -12,13 -24,25 -34,36 -9,10 -17,18 -21,23 -3,-4 -6,-8 -9,-12 -3,-4 -7,-9 -12,-15 -6,-6 -12,-11 -17,-15 -5,-3 -9,-7 -14,-11 19,-18 37,-34 53,-49 15,-15 30,-28 43,-41 14,-13 27,-26 40,-39 13,-12 27,-26 42,-40 15,-15 31,-31 49,-48 17,-18 38,-39 61,-62z"/>
   <path class="fil0" d="M995 5801c-15,-20 -31,-39 -47,-58 -16,-19 -33,-37 -51,-54 3,-2 6,-3 9,-5 3,-2 6,-4 9,-7 3,-2 5,-4 7,-7 2,-2 4,-5 7,-7 9,14 18,28 29,42 10,15 20,27 28,37 6,7 11,13 17,20 6,7 11,13 17,19 10,-8 21,-17 32,-26 11,-8 22,-17 32,-26 7,-5 14,-11 21,-17 7,-6 14,-12 21,-18 7,-6 14,-12 19,-17 6,-5 11,-9 14,-11 -13,-16 -28,-34 -45,-54 -18,-20 -40,-43 -67,-70 3,-1 6,-3 9,-5 3,-1 6,-4 9,-7 4,-3 7,-5 9,-7 1,-2 3,-5 5,-7 8,12 17,24 26,36 9,11 18,22 27,34 16,19 32,37 48,56 16,18 32,36 49,55 -10,6 -20,13 -30,21 -10,7 -21,15 -35,25 -13,10 -29,23 -47,37 -18,15 -41,33 -67,55 -12,10 -25,21 -39,33 -14,11 -28,23 -42,35 -14,12 -28,24 -41,36 -14,12 -26,23 -38,34 -12,-19 -25,-36 -39,-53 -14,-17 -28,-34 -42,-52 -10,-12 -20,-24 -31,-36 -10,-12 -21,-24 -33,-35 3,-2 6,-3 9,-5 4,-2 7,-5 10,-7 3,-3 6,-6 8,-8 2,-2 4,-4 6,-7 3,5 6,10 9,16 3,5 7,11 11,17 4,7 9,14 15,22 6,8 14,17 22,28 8,8 14,16 19,22 5,6 12,14 21,24 6,-4 10,-7 14,-10 4,-3 8,-6 12,-9 4,-3 8,-7 13,-11 5,-4 11,-9 18,-15 8,-7 15,-12 20,-16 5,-4 10,-8 14,-12 5,-4 9,-7 13,-11 4,-4 10,-9 16,-14z"/>
   <path class="fil0" d="M765 5196c7,-2 14,-5 21,-8 7,-4 15,-8 26,-14 24,12 46,28 67,47 20,18 37,39 52,63 20,30 33,61 39,91 6,30 6,59 0,87 -6,28 -18,54 -36,77 -17,24 -40,45 -67,62 -26,17 -52,28 -80,35 -29,6 -56,7 -84,1 -28,-5 -55,-18 -81,-37 -27,-19 -51,-46 -74,-81 -10,-16 -19,-31 -25,-46 -7,-15 -13,-29 -17,-41 -4,-13 -7,-25 -9,-35 -2,-11 -4,-20 -5,-27 6,-2 12,-3 17,-5 5,-1 9,-2 14,-4 4,-1 9,-3 13,-5 5,-2 11,-5 17,-8l3 5c-5,9 -8,19 -11,31 -2,12 -3,25 -2,38 1,14 4,28 9,42 5,15 12,29 20,42 14,21 30,38 48,50 19,13 39,20 61,23 22,3 46,2 70,-5 25,-6 50,-18 76,-34 27,-18 49,-37 64,-59 16,-21 26,-43 31,-65 5,-22 6,-44 2,-66 -5,-22 -13,-42 -25,-61 -4,-6 -9,-13 -17,-22 -7,-8 -16,-17 -26,-26 -11,-8 -24,-16 -39,-23 -15,-7 -32,-12 -51,-14l-1 -8z"/>
   <path class="fil0" d="M550 5122c-26,13 -51,25 -75,37 -23,11 -45,22 -64,32 15,30 28,55 39,75 11,20 21,36 30,47 -4,1 -7,2 -10,3 -3,1 -7,3 -11,5 -5,2 -8,4 -11,6 -3,1 -5,3 -8,6 -3,-9 -8,-21 -14,-34 -5,-13 -12,-26 -18,-41 -7,-14 -14,-28 -20,-42 -7,-14 -13,-27 -19,-38 -7,-14 -14,-28 -20,-42 -7,-15 -14,-28 -21,-41 -6,-14 -13,-26 -19,-37 -6,-12 -12,-22 -17,-31 3,0 6,-1 9,-2 4,-1 8,-3 12,-5 4,-2 7,-4 10,-6 3,-2 6,-4 9,-6 2,9 8,24 15,44 8,19 20,46 36,81 20,-9 40,-19 59,-28 20,-9 40,-19 59,-28 17,-8 35,-17 55,-26 20,-10 40,-20 60,-30 21,-10 42,-21 63,-32 22,-11 43,-22 64,-34 3,10 6,19 8,25 3,6 5,10 6,13 3,6 6,12 10,17 3,5 6,8 8,11 -33,13 -69,28 -108,46 -40,18 -79,36 -117,55z"/>
   <path class="fil0" d="M291 4702c-18,6 -30,15 -38,25 -8,10 -13,21 -15,33 -2,12 -2,25 1,38 2,12 6,24 10,35 3,8 6,16 8,22 3,6 6,10 8,14 14,-4 27,-8 41,-13 13,-5 27,-10 40,-15 7,-2 14,-5 23,-8 8,-2 16,-5 23,-8 8,-3 15,-6 21,-8 7,-2 12,-4 15,-5 -2,-6 -3,-11 -4,-15 -2,-4 -4,-10 -7,-17 -3,-7 -7,-16 -13,-27 -5,-12 -13,-23 -23,-33 -10,-10 -22,-17 -37,-22 -15,-4 -33,-3 -53,4zm272 -208c1,7 3,13 4,18 1,6 2,12 5,18 2,7 5,13 8,20 3,7 7,14 11,22 -18,22 -33,43 -47,62 -14,19 -27,37 -39,55 -12,18 -23,35 -33,51 -10,16 -20,33 -29,49l6 15c21,-7 48,-17 79,-28 32,-12 71,-27 119,-47 0,6 1,12 3,18 2,7 3,13 5,18 3,8 6,14 8,18 2,4 5,8 7,12 -36,11 -72,23 -109,35 -37,13 -77,27 -121,42 -27,10 -56,21 -87,33 -30,11 -62,24 -95,36 -3,-12 -6,-22 -9,-30 -3,-9 -5,-16 -7,-22 -1,-3 -3,-8 -5,-14 -3,-7 -5,-14 -8,-21 -3,-7 -5,-14 -8,-21 -2,-6 -4,-11 -4,-13 -7,-18 -12,-33 -15,-46 -3,-12 -5,-23 -6,-32 -1,-9 -1,-17 0,-24 2,-7 3,-13 5,-20 6,-14 13,-26 24,-35 10,-8 23,-15 37,-20 22,-8 40,-10 57,-6 16,4 30,11 42,21 12,9 22,20 30,32 8,13 14,23 19,31 5,-5 11,-14 20,-27 8,-13 18,-28 28,-44 11,-16 21,-32 32,-50 11,-17 21,-33 30,-48 10,-15 18,-27 24,-38 7,-10 11,-16 12,-17l7 -3z"/>
   <path class="fil0" d="M326 4443c30,-7 56,-16 79,-29 22,-13 41,-28 54,-46 14,-18 24,-38 28,-60 5,-22 5,-45 0,-68 -5,-25 -14,-46 -26,-65 -13,-19 -30,-34 -50,-45 -19,-12 -43,-19 -69,-22 -26,-4 -55,-2 -87,5 -8,1 -17,3 -27,6 -10,3 -20,7 -30,11 -10,4 -20,9 -30,15 -9,5 -18,12 -26,19 -13,11 -22,23 -30,37 -7,13 -12,27 -15,41 -3,13 -4,27 -4,40 0,13 2,25 4,35 4,21 12,40 23,58 11,19 26,34 45,46 19,13 42,21 68,26 27,4 58,3 93,-4zm-257 -124c-6,-32 -8,-63 -4,-93 3,-31 12,-58 26,-83 14,-25 34,-46 58,-63 24,-18 54,-30 89,-37 32,-7 63,-8 93,-2 30,5 58,16 82,33 25,16 46,38 64,65 17,28 30,60 37,96 7,34 8,66 4,97 -4,31 -14,58 -29,83 -15,24 -34,45 -59,62 -25,17 -55,29 -89,36 -33,7 -64,8 -94,2 -29,-5 -56,-16 -80,-32 -23,-17 -44,-39 -61,-66 -17,-27 -29,-60 -37,-98z"/>
   <path class="fil0" d="M203 3851c-29,2 -57,4 -83,6 -26,1 -50,3 -71,5 2,33 5,61 8,84 2,24 5,42 9,56 -4,-1 -7,-1 -10,-2 -4,0 -8,0 -12,0 -5,1 -9,1 -13,2 -3,1 -6,1 -9,2 0,-9 0,-21 0,-36 -1,-14 -1,-29 -2,-45 -1,-15 -2,-31 -3,-46 -1,-16 -2,-30 -2,-42 -1,-16 -2,-32 -3,-47 -1,-16 -2,-31 -4,-46 -1,-15 -2,-29 -4,-42 -1,-13 -2,-24 -4,-34 3,0 6,1 10,1 4,0 8,0 12,0 5,0 9,-1 12,-2 4,0 7,-1 10,-2 -1,10 -1,25 -2,46 0,21 1,51 3,89 21,-1 43,-2 65,-4 22,-1 44,-2 65,-3 19,-2 39,-3 61,-4 21,-1 44,-3 67,-4 23,-2 46,-4 70,-6 24,-2 48,-5 72,-8 -1,11 -2,20 -1,27 0,6 0,11 0,13 0,8 1,14 2,20 1,6 3,10 4,13 -35,0 -75,1 -118,2 -43,2 -86,4 -129,7z"/>
   <path class="fil0" d="M195 3511c2,-26 3,-51 3,-75 1,-25 0,-50 -2,-75 4,1 7,2 10,3 3,0 7,1 12,1 3,0 6,0 10,-1 3,0 6,-1 10,-1 -3,16 -5,33 -7,51 -2,18 -3,33 -4,47 0,8 0,17 0,26 0,8 0,17 0,25 13,1 27,2 41,2 14,1 28,2 42,2 8,1 17,1 26,1 10,0 19,0 28,0 10,1 18,1 26,1 7,0 13,0 17,0 1,-20 2,-44 2,-70 1,-27 0,-59 -3,-96 4,1 7,1 10,2 3,0 7,1 12,1 4,0 8,0 11,0 2,-1 6,-1 9,-2 -3,15 -4,29 -5,44 -1,15 -2,29 -2,44 -1,24 -2,49 -2,73 0,25 0,49 0,74 -12,-2 -24,-3 -36,-4 -12,-2 -26,-3 -43,-4 -17,-1 -37,-3 -60,-4 -23,-1 -52,-3 -87,-4 -15,-1 -32,-1 -50,-2 -19,0 -37,0 -55,-1 -19,0 -37,0 -55,0 -18,0 -35,0 -50,0 3,-22 5,-44 6,-66 1,-21 2,-43 2,-66 1,-16 1,-32 2,-48 0,-16 -1,-32 -2,-48 4,1 7,2 11,2 3,1 7,1 11,1 5,1 9,1 11,0 3,0 6,-1 10,-1 -2,6 -3,12 -4,18 -1,6 -2,12 -4,20 -1,8 -2,16 -2,26 -1,10 -2,22 -2,36 -1,11 -1,21 -2,29 0,8 0,19 1,32 6,1 11,1 16,2 5,0 10,0 15,1 5,0 11,0 17,0 7,0 15,1 24,1 10,1 19,1 25,1 7,0 13,1 19,1 6,0 11,0 17,0 6,0 13,0 21,1z"/>
   <path class="fil0" d="M427 2895c7,2 14,5 21,7 8,2 17,5 29,7 10,26 16,52 19,79 2,28 1,55 -3,83 -6,36 -16,67 -32,94 -16,26 -35,48 -58,64 -23,17 -49,28 -78,34 -29,6 -60,7 -92,2 -30,-5 -57,-14 -83,-28 -25,-14 -46,-32 -63,-55 -17,-23 -29,-50 -36,-82 -7,-32 -7,-68 0,-109 3,-19 6,-36 11,-52 5,-15 10,-29 15,-41 6,-13 11,-24 17,-33 5,-9 10,-17 14,-23 6,3 11,6 16,8 4,2 9,4 13,6 4,2 9,3 13,5 5,2 11,3 18,5l-1 7c-9,2 -19,8 -29,15 -9,7 -18,17 -27,27 -8,11 -15,24 -21,38 -6,14 -10,29 -13,44 -4,25 -3,48 3,70 5,21 15,40 29,57 15,17 33,32 56,43 23,12 49,20 79,25 33,5 62,5 87,-1 26,-5 49,-14 67,-28 18,-13 33,-29 45,-48 11,-19 18,-40 22,-62 1,-7 2,-16 2,-27 1,-11 0,-24 -2,-37 -3,-14 -7,-28 -13,-43 -7,-15 -16,-30 -29,-44l4 -7z"/>
   <path class="fil0" d="M430 2750c14,4 25,8 35,10 9,3 18,6 26,9 8,2 17,5 25,7 8,2 18,5 30,8 -3,5 -5,9 -7,14 -3,5 -5,11 -7,18 -2,7 -4,13 -5,18 0,6 -1,12 -2,17 -27,-10 -49,-18 -68,-25 -18,-7 -35,-13 -51,-18 -16,-6 -31,-11 -47,-16 -15,-5 -32,-11 -52,-17 -12,-3 -22,-6 -32,-9 -9,-3 -20,-6 -34,-10 -13,-4 -30,-8 -51,-14 -21,-6 -48,-13 -82,-22 2,-5 5,-9 7,-14 2,-4 4,-11 7,-19 2,-8 4,-14 5,-19 1,-5 1,-11 2,-16 4,2 12,5 24,10 13,4 27,9 44,15 16,5 34,11 53,17 18,6 36,12 53,17 7,-20 14,-40 20,-60 7,-20 13,-40 20,-60 3,-11 6,-22 9,-32 3,-9 6,-19 9,-28 2,-9 5,-17 7,-26 2,-8 5,-17 7,-26 -20,-7 -37,-12 -50,-16 -13,-4 -25,-8 -37,-11 -11,-4 -24,-7 -38,-11 -13,-3 -31,-8 -52,-13 3,-5 5,-9 7,-14 2,-5 4,-11 7,-19 2,-8 4,-14 5,-19 1,-6 1,-11 2,-16 50,18 99,35 147,51 49,16 96,31 141,45 12,4 22,7 32,10 9,3 19,6 28,8 10,2 20,5 30,8 11,3 24,6 39,10 -3,5 -5,10 -8,15 -2,5 -4,10 -6,15 -1,5 -2,10 -3,15 -1,6 -2,13 -4,21 -8,-3 -18,-7 -29,-11 -12,-4 -23,-8 -34,-12 -11,-4 -21,-7 -30,-11 -9,-3 -16,-5 -19,-6l-91 -28c-3,10 -7,19 -9,27 -3,7 -5,15 -8,23 -3,8 -6,18 -9,28 -3,10 -7,23 -12,38 -4,14 -8,26 -11,36 -3,10 -5,18 -8,26 -2,8 -5,16 -7,24 -2,9 -5,19 -8,30l90 28z"/>
   <path class="fil0" d="M435 2229c23,11 43,21 61,29 17,9 33,16 48,22 14,7 28,12 40,18 12,5 24,11 35,16 12,4 24,10 37,15 12,5 26,11 41,17 -2,3 -5,6 -7,9 -3,4 -5,8 -8,13 -3,6 -4,10 -5,13 -1,4 -1,7 -2,11 -7,-4 -18,-10 -32,-18 -14,-8 -30,-17 -47,-26 -17,-9 -35,-19 -53,-28 -19,-10 -35,-18 -50,-26 -6,-2 -15,-7 -29,-13 -14,-7 -28,-14 -43,-21 -15,-7 -29,-14 -43,-20 -13,-6 -22,-11 -28,-13l-68 -33c1,-2 2,-4 3,-5 1,-1 2,-2 3,-4 1,-2 1,-4 2,-5 1,-2 1,-5 2,-7l32 -8c6,-2 12,-4 18,-5 7,-2 14,-4 21,-6 8,-3 17,-5 26,-8 10,-3 22,-7 35,-11 29,-9 55,-17 76,-24 21,-7 40,-13 56,-18 17,-5 31,-10 44,-14 14,-4 27,-8 39,-12 13,-5 27,-9 41,-14 13,-4 29,-9 47,-16l-21 -10c-36,-18 -67,-33 -92,-45 -26,-13 -49,-24 -70,-33 -21,-9 -40,-18 -59,-26 -18,-8 -38,-16 -59,-24 2,-2 4,-5 7,-9 2,-3 5,-7 7,-11 2,-5 4,-9 5,-14 1,-4 2,-8 3,-12 39,25 79,48 119,68 40,21 81,41 123,61 11,6 23,12 36,18 14,7 28,14 42,20 14,7 27,13 40,19 13,6 25,11 35,16 -1,2 -2,3 -3,5 -1,1 -2,3 -3,5 -1,1 -1,3 -2,4 0,2 -1,3 -1,5 -5,2 -13,4 -23,7 -11,2 -23,5 -36,9 -13,4 -28,8 -43,13 -15,4 -30,9 -45,13 -15,5 -29,10 -42,14 -14,5 -25,9 -34,12 -7,3 -14,6 -21,8 -7,2 -14,5 -22,7l-169 55 36 17z"/>
   <path class="fil0" d="M723 1819c-13,-8 -24,-15 -33,-21 -9,-6 -18,-11 -26,-16 -8,-5 -16,-10 -23,-14 -8,-5 -16,-10 -25,-15 -10,-5 -20,-12 -32,-19 -12,-7 -26,-15 -43,-25 4,-3 7,-7 11,-11 3,-3 6,-9 11,-16 5,-7 8,-13 10,-18 2,-5 5,-10 6,-15 31,22 62,43 94,64 31,20 62,41 94,61 25,15 46,29 64,40 17,11 33,21 48,29 14,8 26,16 38,22 11,7 21,13 32,19 -4,4 -8,9 -12,14 -5,5 -9,11 -13,17 -3,6 -6,11 -8,16 -2,5 -4,9 -6,14 -14,-10 -27,-19 -38,-27 -12,-8 -24,-17 -37,-26 -14,-9 -29,-20 -47,-31 -17,-11 -39,-25 -65,-42z"/>
   <path class="fil0" d="M1178 1431c5,6 10,11 15,17 5,5 13,12 21,20 -3,27 -10,53 -21,78 -11,25 -25,49 -42,71 -22,29 -47,51 -73,67 -27,16 -54,25 -82,29 -29,3 -57,1 -85,-8 -28,-9 -55,-23 -81,-43 -24,-18 -44,-40 -59,-64 -16,-24 -26,-50 -29,-79 -4,-28 -2,-57 8,-88 9,-32 26,-64 52,-97 11,-15 23,-28 34,-39 12,-11 23,-21 34,-29 10,-9 20,-16 30,-21 9,-5 17,-10 24,-14 3,6 6,11 9,15 3,4 6,8 9,12 3,3 6,7 9,11 4,3 8,8 13,13l-4 5c-9,-2 -20,-2 -32,-1 -12,2 -24,6 -37,12 -12,5 -25,12 -37,22 -12,9 -23,20 -32,33 -16,20 -26,40 -31,62 -6,21 -6,43 -2,65 4,22 14,43 28,64 14,21 33,41 58,60 26,20 51,34 76,41 26,8 50,10 72,8 23,-3 43,-10 63,-21 19,-11 35,-26 49,-44 4,-5 9,-13 15,-22 6,-10 11,-21 16,-34 4,-13 7,-28 9,-44 1,-17 0,-34 -4,-53l7 -4z"/>
   <path class="fil0" d="M1153 1079l61 159 97 -94 -158 -65zm75 191c5,15 14,36 25,64 11,27 27,59 47,96 -3,2 -7,4 -10,6 -3,2 -7,5 -11,9 -5,4 -8,8 -10,11 -3,4 -5,8 -8,11 -7,-21 -15,-44 -24,-70 -9,-25 -19,-52 -28,-79 -10,-27 -20,-55 -30,-83 -10,-28 -20,-56 -30,-82 -10,-26 -20,-52 -29,-75 -9,-24 -18,-46 -25,-65 2,-1 4,-2 6,-4 2,-1 4,-3 6,-5 3,-2 4,-4 5,-6 2,-1 3,-3 4,-5 21,10 47,22 77,35 30,13 61,27 94,40 33,14 65,28 98,41 32,13 61,25 87,36 25,10 46,19 63,25 16,6 24,10 25,10 -5,3 -10,6 -14,10 -5,3 -10,8 -16,13 -6,6 -11,11 -15,16 -4,5 -8,10 -11,15 -35,-20 -66,-36 -93,-47 -28,-12 -50,-21 -68,-28l-115 111z"/>
   <path class="fil0" d="M1630 1084c13,-8 22,-15 28,-20 7,-5 13,-10 19,-15 7,-4 14,-10 22,-17 8,-6 16,-13 24,-19 7,-7 15,-14 22,-21 7,-7 13,-13 18,-18 1,3 3,5 4,8 2,3 4,6 7,10 3,4 6,7 8,9 3,3 5,5 7,6 -8,6 -16,12 -23,17 -8,5 -16,11 -24,16 -9,6 -18,13 -28,21 -10,7 -22,16 -35,26 -11,9 -21,16 -28,22 -7,6 -14,12 -20,16 -5,5 -11,10 -16,15 -5,4 -11,9 -18,15 -11,-17 -22,-33 -33,-48 -11,-16 -22,-31 -33,-46 -11,-15 -22,-30 -34,-45 -11,-15 -23,-31 -36,-47 -13,-17 -26,-34 -40,-51 -13,-17 -26,-33 -38,-47 -12,-15 -23,-28 -32,-39 -9,-11 -16,-19 -20,-24 5,-3 9,-5 13,-7 5,-2 10,-6 16,-11 7,-5 13,-10 17,-14 4,-5 8,-9 13,-13 15,22 30,41 42,58 12,18 24,34 35,49 12,15 22,30 33,44 11,15 23,30 35,47 13,16 27,35 42,54 15,20 33,43 53,69z"/>
   <path class="fil0" d="M1873 741c-13,-25 -25,-47 -34,-65 -10,-18 -18,-33 -25,-46 -8,-14 -14,-25 -19,-35 -5,-9 -10,-18 -15,-27 -5,-9 -10,-17 -16,-26 -5,-9 -11,-19 -18,-30 6,-2 12,-5 18,-7 6,-2 11,-4 16,-7 7,-3 12,-7 17,-10 5,-4 10,-7 14,-11 9,19 18,39 28,61 11,21 21,41 30,60 10,19 18,35 25,48 8,14 12,22 13,25 10,17 18,33 26,47 8,13 16,25 23,35 8,11 15,19 23,26 8,7 17,12 26,16 15,6 32,8 52,6 20,-2 38,-8 56,-18 4,-2 11,-6 20,-12 10,-7 19,-16 28,-28 9,-11 16,-25 21,-42 5,-16 4,-36 -2,-58 -3,-10 -7,-22 -12,-34 -5,-13 -10,-25 -15,-36 -6,-12 -11,-22 -15,-31 -5,-9 -8,-15 -10,-19 -3,-5 -8,-15 -16,-29 -8,-15 -17,-30 -27,-47 -10,-17 -20,-34 -29,-50 -10,-17 -18,-29 -25,-37 5,-1 9,-2 13,-4 4,-1 9,-3 15,-7 7,-3 11,-6 14,-8 3,-3 6,-5 9,-8 10,28 23,58 39,91 15,32 34,69 56,111 8,14 15,28 21,42 7,15 13,29 17,44 5,14 7,29 8,44 1,15 0,30 -4,44 -6,19 -16,38 -30,56 -15,19 -38,37 -70,54 -11,6 -22,11 -36,16 -13,5 -26,9 -41,11 -14,2 -29,2 -44,1 -15,-1 -30,-5 -45,-12 -9,-4 -17,-10 -24,-15 -7,-6 -13,-13 -19,-21 -7,-7 -13,-16 -19,-26 -6,-10 -12,-20 -18,-32z"/>
   <path class="fil0" d="M2306 402c9,24 17,45 23,63 7,19 13,35 19,50 6,14 11,28 16,40 5,13 10,25 15,36 4,12 9,24 15,37 5,12 11,26 17,41 -4,0 -8,1 -12,2 -4,0 -9,1 -14,3 -6,2 -10,4 -13,6 -3,2 -6,4 -9,6 -2,-8 -5,-19 -10,-35 -4,-16 -10,-33 -15,-51 -6,-19 -12,-38 -18,-58 -7,-20 -13,-37 -18,-53 -2,-6 -6,-16 -11,-30 -6,-14 -11,-29 -17,-45 -6,-16 -11,-30 -16,-44 -5,-14 -9,-24 -11,-29l-25 -72c2,0 4,0 5,-1 2,0 3,0 5,-1 2,-1 4,-1 5,-2 2,-1 4,-2 7,-3l28 16c5,3 11,6 17,10 5,3 12,6 19,10 7,4 15,8 24,12 9,5 20,11 32,17 28,14 51,26 71,36 20,10 38,19 53,27 15,8 29,15 41,21 12,6 25,12 37,18 12,6 25,12 38,19 13,6 28,14 45,22l-8 -22c-13,-38 -25,-71 -34,-98 -10,-26 -19,-50 -27,-72 -8,-21 -16,-41 -24,-59 -7,-19 -16,-38 -26,-59 4,0 8,-1 12,-1 4,-1 8,-2 13,-4 5,-1 9,-3 13,-6 4,-2 8,-4 11,-6 10,45 23,89 37,132 14,43 29,86 45,129 4,12 8,25 13,39 5,14 11,28 16,43 5,14 10,28 15,42 5,13 10,25 15,36 -3,0 -5,0 -6,1 -2,0 -4,1 -6,1 -1,1 -3,2 -4,2 -2,1 -3,2 -5,3 -4,-3 -11,-6 -21,-12 -9,-5 -20,-11 -32,-18 -12,-7 -25,-14 -39,-21 -14,-8 -28,-15 -42,-22 -14,-7 -27,-13 -40,-20 -13,-6 -24,-11 -33,-15 -6,-3 -13,-6 -20,-9 -7,-3 -14,-7 -21,-10l-159 -80 14 38z"/>
   <path class="fil0" d="M2779 316c-4,-15 -7,-27 -9,-38 -3,-11 -5,-21 -8,-30 -2,-9 -4,-18 -6,-26 -2,-9 -5,-18 -8,-28 -3,-11 -6,-22 -10,-36 -3,-13 -8,-29 -13,-47 5,0 10,-1 15,-1 5,-1 11,-2 19,-4 9,-2 16,-4 20,-6 5,-1 10,-4 15,-6 7,37 14,74 23,110 8,37 16,74 25,110 7,28 13,52 18,73 5,20 10,38 14,54 4,16 8,30 12,43 4,12 7,24 10,35 -6,1 -12,1 -19,2 -6,1 -13,2 -20,4 -7,1 -13,3 -17,5 -5,2 -10,4 -15,6 -2,-17 -5,-32 -8,-46 -2,-14 -5,-28 -9,-44 -3,-16 -7,-34 -11,-54 -5,-20 -11,-46 -18,-76z"/>
   <path class="fil0" d="M3159 398c7,-28 14,-54 20,-77 7,-24 12,-47 18,-70 5,-23 10,-47 15,-72 5,-24 11,-52 16,-82 2,-11 3,-21 4,-28 2,-8 3,-15 4,-21 0,-6 1,-12 2,-17 0,-4 1,-9 1,-14 4,1 8,1 12,1 4,0 9,0 15,-1 3,0 8,-1 15,-3 6,-1 11,-3 15,-5 -2,4 -5,13 -10,28 -4,15 -10,34 -16,56 -7,23 -14,49 -22,78 -8,29 -16,60 -24,93 -9,33 -17,67 -25,102 -8,34 -16,68 -23,102 -2,0 -4,-1 -8,-1 -4,0 -10,0 -17,1 -3,0 -6,1 -10,2 -5,1 -10,2 -14,5 -4,-7 -11,-20 -21,-39 -10,-19 -22,-42 -36,-67 -15,-26 -30,-54 -47,-83 -16,-29 -33,-58 -49,-85 -16,-28 -32,-54 -47,-77 -14,-24 -27,-43 -37,-57 5,1 11,1 18,1 7,-1 14,-1 20,-2 5,-1 12,-2 20,-3 8,-2 16,-4 22,-7 6,13 13,28 22,45 9,17 18,36 29,56 10,20 22,41 33,63 12,22 24,43 36,64 12,21 24,42 36,61 12,20 23,38 33,53z"/>
   <path class="fil0" d="M3452 196c25,-1 50,-1 74,-3 25,-1 50,-3 74,-7 0,4 -1,7 -1,10 0,3 0,7 0,12 0,3 0,6 1,10 1,3 1,6 2,9 -17,-1 -34,-2 -51,-3 -18,0 -34,0 -47,0 -9,1 -17,1 -26,1 -9,1 -17,2 -25,2 0,14 0,28 0,42 0,14 1,28 1,41 0,9 1,17 1,27 1,9 1,19 2,28 1,9 1,18 1,25 1,8 1,14 1,18 21,-1 44,-2 71,-3 26,-2 58,-5 95,-10 0,3 -1,6 -1,10 -1,3 -1,7 0,11 0,5 0,9 1,11 0,3 1,6 2,9 -15,-1 -30,-2 -44,-2 -15,1 -29,1 -44,2 -25,0 -49,2 -73,3 -25,2 -49,4 -74,5 1,-11 1,-23 2,-36 0,-12 0,-26 0,-43 0,-17 0,-37 0,-60 0,-24 -1,-52 -2,-87 -1,-16 -2,-32 -2,-51 -1,-18 -2,-36 -3,-54 -1,-19 -2,-37 -4,-55 -1,-18 -2,-35 -4,-50 23,1 45,2 67,1 21,-1 43,-1 66,-2 16,0 32,-1 48,-2 16,-1 31,-3 47,-5 0,3 -1,7 -1,11 0,3 -1,7 0,11 0,5 0,9 1,11 0,3 1,6 2,9 -6,-1 -12,-2 -18,-2 -6,-1 -13,-1 -21,-2 -7,-1 -16,-1 -26,-1 -10,0 -22,0 -36,1 -11,0 -21,0 -29,1 -8,0 -19,1 -32,2 0,6 0,12 0,17 -1,5 0,9 0,15 0,5 0,10 0,17 1,6 1,14 1,24 0,10 1,18 1,25 0,7 0,13 1,18 0,6 0,12 1,18 0,5 0,12 1,21z"/>
   <path class="fil0" d="M3931 127c1,-19 -1,-34 -7,-45 -7,-11 -15,-21 -25,-27 -10,-7 -22,-11 -35,-14 -12,-3 -24,-4 -36,-5 -9,-1 -17,-1 -23,-1 -7,0 -12,1 -17,1 -2,15 -3,29 -4,43 -1,14 -2,29 -3,43 0,7 -1,15 -2,24 0,8 -1,17 -1,25 0,8 -1,16 -1,22 -1,7 -1,12 -1,15 5,2 11,2 15,3 4,0 10,0 18,0 7,0 17,0 30,0 13,-1 26,-4 39,-9 13,-5 25,-13 35,-25 10,-12 16,-28 18,-50zm82 332c-7,-1 -13,-2 -18,-3 -6,-2 -12,-2 -19,-3 -7,0 -14,0 -21,0 -8,0 -16,0 -25,1 -13,-25 -26,-47 -38,-68 -12,-20 -23,-40 -35,-58 -11,-17 -22,-34 -33,-50 -11,-16 -22,-31 -34,-46l-16 -2c-2,23 -3,51 -6,85 -2,34 -3,76 -4,127 -6,-2 -12,-3 -18,-4 -7,-1 -13,-2 -19,-2 -8,-1 -15,-1 -19,0 -5,0 -10,1 -14,1 4,-37 8,-75 11,-114 4,-38 7,-81 10,-127 2,-30 4,-60 5,-93 2,-32 3,-66 5,-102 12,2 22,3 31,4 9,1 17,2 24,2 3,0 7,1 14,1 7,1 15,1 23,1 7,1 15,1 22,2 7,0 11,1 14,1 19,1 35,3 47,5 13,2 24,5 32,7 9,3 16,6 22,10 6,4 11,8 16,13 12,10 19,22 23,35 4,13 5,27 4,42 -2,23 -8,41 -18,54 -10,14 -22,24 -35,31 -14,7 -28,12 -42,14 -15,3 -27,5 -37,6 4,6 10,15 18,28 8,13 18,28 28,44 11,16 22,32 33,49 12,17 23,33 33,47 10,15 18,27 25,37 6,10 10,16 11,18l0 7z"/>
   <path class="fil0" d="M4329 155c-1,-6 -3,-13 -5,-21 -3,-7 -7,-14 -13,-21 -5,-7 -13,-14 -22,-19 -10,-6 -22,-10 -36,-13 -17,-3 -31,-2 -42,1 -12,4 -21,9 -28,15 -7,7 -13,14 -16,22 -3,8 -5,14 -6,20 -3,12 -2,23 1,32 3,10 7,18 14,25 6,7 13,13 20,19 8,6 16,11 23,15 16,10 29,18 39,24 9,6 17,11 24,16 6,4 12,9 16,13 5,4 9,9 14,14 6,7 10,15 14,22 3,8 5,15 6,23 2,7 2,15 2,22 0,7 -1,13 -2,19 -3,16 -9,32 -18,47 -8,16 -20,29 -35,40 -15,11 -34,19 -55,24 -21,5 -46,4 -73,-1 -21,-3 -41,-10 -59,-19 -18,-9 -34,-20 -48,-35 7,-15 12,-27 15,-37 3,-9 5,-16 7,-20l8 2c5,20 16,38 31,53 16,16 36,26 61,30 16,3 30,3 43,0 12,-3 23,-7 32,-14 9,-6 16,-14 21,-23 5,-9 9,-19 11,-29 2,-12 2,-23 -1,-33 -2,-10 -6,-18 -12,-26 -6,-8 -13,-15 -22,-22 -8,-6 -17,-13 -27,-19 -17,-10 -30,-19 -40,-26 -10,-7 -18,-12 -24,-17 -6,-4 -11,-8 -14,-11 -4,-4 -7,-7 -11,-12 -9,-11 -15,-23 -17,-38 -2,-15 -2,-30 0,-45 4,-20 11,-36 21,-50 10,-14 23,-25 37,-33 15,-8 31,-12 48,-14 18,-2 36,-2 54,2 12,2 24,5 35,9 10,4 20,9 29,13 9,5 16,9 23,14 6,5 11,8 14,12 -2,2 -4,5 -7,8 -2,4 -5,8 -8,13 -2,4 -5,9 -7,15 -3,5 -5,10 -6,16l-9 -2z"/>
   <path class="fil0" d="M4460 322c4,-14 7,-27 10,-37 3,-11 6,-21 8,-30 3,-9 5,-18 7,-26 2,-9 4,-18 7,-29 2,-10 5,-22 8,-35 3,-14 7,-30 11,-49 4,3 9,5 13,7 5,2 11,4 19,6 9,2 16,4 21,4 5,1 10,2 16,2 -12,36 -23,72 -33,108 -11,36 -21,72 -31,108 -7,28 -14,52 -19,72 -5,21 -10,39 -14,55 -3,16 -7,30 -9,43 -3,12 -6,24 -9,36 -5,-2 -11,-5 -17,-7 -6,-3 -13,-5 -19,-7 -7,-2 -13,-3 -18,-3 -6,-1 -11,-1 -16,-2 6,-16 11,-31 15,-44 4,-14 9,-28 14,-43 5,-16 10,-34 15,-54 6,-19 13,-44 21,-75z"/>
   <path class="fil0" d="M4737 384c10,-27 20,-53 28,-78 9,-25 17,-47 24,-67 -32,-11 -58,-20 -81,-27 -22,-7 -40,-11 -54,-13 2,-3 4,-6 5,-9 2,-3 3,-7 5,-11 2,-5 3,-9 3,-12 1,-3 2,-7 2,-10 9,4 20,9 33,14 13,6 27,11 42,17 15,5 29,11 44,16 14,5 28,10 40,14 14,6 29,11 44,16 15,6 29,11 43,16 14,4 27,9 40,13 12,3 23,7 33,9 -2,3 -3,6 -5,9 -1,3 -3,7 -5,11 -1,5 -2,9 -3,12 -1,3 -1,7 -2,10 -8,-5 -22,-12 -41,-20 -20,-9 -47,-20 -83,-34 -7,21 -15,41 -23,62 -7,20 -15,41 -22,61 -7,18 -14,37 -21,57 -8,20 -15,41 -23,63 -8,22 -15,44 -23,67 -7,23 -15,46 -21,69 -10,-5 -18,-9 -24,-12 -6,-3 -10,-4 -13,-5 -7,-3 -13,-5 -19,-6 -6,-1 -10,-2 -13,-2 14,-32 29,-68 45,-108 16,-41 31,-81 45,-122z"/>
   <path class="fil0" d="M5099 647c-3,6 -7,13 -11,24 -5,10 -11,21 -16,34 -6,12 -12,25 -18,38 -6,13 -11,26 -16,38 -5,-5 -9,-9 -14,-11 -5,-3 -9,-5 -13,-7 -8,-4 -15,-7 -20,-9 -6,-2 -11,-3 -15,-4 6,-11 13,-22 18,-31 5,-10 11,-20 17,-31 6,-11 12,-25 19,-40 7,-15 16,-33 27,-55 -3,-34 -5,-63 -7,-88 -2,-25 -4,-47 -5,-65 -2,-18 -3,-34 -4,-48 -1,-13 -3,-25 -3,-36 -1,-11 -2,-22 -3,-32 -1,-10 -2,-22 -3,-34 6,6 13,10 20,14 6,3 11,6 14,7 10,5 19,9 26,11 7,3 12,5 16,5 -3,36 -4,69 -3,100 1,32 3,61 5,88 0,7 0,14 1,20 0,7 1,13 2,18 0,6 1,10 2,14 0,3 1,5 2,5 1,1 3,0 7,-2 3,-2 7,-4 12,-7 4,-2 8,-5 12,-8 4,-3 7,-5 9,-6 27,-18 54,-37 80,-57 27,-20 52,-41 77,-63 3,4 7,7 12,9 4,3 8,5 13,8 5,2 10,4 14,5 4,2 8,3 13,4 -6,3 -15,8 -27,15 -11,7 -24,15 -39,24 -14,8 -29,18 -45,28 -16,10 -31,19 -46,29 -15,9 -29,18 -41,27 -13,8 -23,15 -31,20 -5,4 -9,7 -12,10 -4,3 -7,6 -10,8 -3,4 -5,9 -8,14 -2,6 -5,11 -8,17z"/>
   <path class="fil0" d="M5596 736c12,9 22,19 29,31 8,12 13,25 15,38 3,14 3,27 0,41 -3,14 -9,28 -17,40 -9,12 -19,22 -31,29 -12,8 -25,13 -39,15 -13,3 -27,2 -41,0 -14,-3 -27,-9 -39,-17 -12,-9 -22,-19 -29,-31 -8,-12 -13,-25 -15,-38 -3,-14 -2,-28 0,-42 3,-14 9,-27 17,-39 9,-12 19,-22 31,-30 13,-7 25,-12 39,-14 13,-3 27,-3 41,0 14,3 27,9 39,17z"/>
   <path class="fil0" d="M6077 1093c2,-6 5,-13 6,-21 2,-8 3,-16 2,-25 -1,-9 -4,-18 -9,-28 -5,-10 -13,-19 -23,-29 -13,-12 -25,-20 -36,-23 -12,-3 -22,-4 -32,-2 -10,2 -18,5 -25,10 -7,4 -12,9 -16,13 -9,9 -14,18 -17,28 -2,9 -3,19 -1,28 1,9 3,19 7,28 3,9 7,17 11,24 8,17 14,31 19,41 5,11 9,19 12,27 3,7 5,14 7,19 2,6 3,13 4,20 1,9 1,18 -1,26 -1,8 -3,16 -6,23 -3,7 -7,13 -11,19 -4,6 -8,11 -12,15 -11,12 -24,22 -40,30 -16,8 -33,13 -52,14 -18,2 -38,-1 -58,-9 -21,-7 -41,-21 -62,-40 -15,-14 -28,-30 -39,-48 -10,-17 -18,-36 -21,-56 14,-8 25,-16 32,-22 8,-6 13,-11 17,-14l6 6c-7,20 -7,41 -3,62 5,22 16,41 35,58 12,11 24,19 36,23 12,5 24,7 34,6 11,0 22,-3 31,-8 10,-5 18,-11 25,-19 8,-9 14,-18 17,-28 3,-9 5,-19 4,-29 -1,-10 -3,-19 -6,-29 -4,-10 -8,-21 -13,-31 -9,-18 -15,-33 -20,-44 -5,-11 -8,-20 -11,-27 -3,-6 -5,-12 -6,-17 -1,-5 -2,-10 -2,-16 -2,-14 0,-27 6,-41 6,-14 14,-27 24,-37 14,-15 29,-26 45,-32 16,-6 32,-8 49,-7 16,1 32,6 48,14 16,8 31,18 44,30 9,9 17,18 24,27 7,9 13,18 18,27 5,8 9,16 11,24 3,7 5,13 6,17 -2,1 -6,2 -10,4 -4,2 -9,4 -13,6 -5,2 -10,5 -15,8 -5,4 -10,7 -14,11l-6 -6z"/>
   <path class="fil0" d="M6276 1310l-163 51 88 103 75 -154zm-195 63c-16,4 -38,11 -66,21 -28,9 -61,23 -99,41 -2,-3 -3,-7 -5,-10 -2,-4 -5,-8 -9,-12 -3,-5 -7,-8 -10,-11 -4,-3 -7,-5 -11,-8 22,-6 46,-13 72,-20 26,-8 53,-15 80,-23 28,-8 57,-16 85,-25 29,-8 57,-17 84,-25 27,-8 53,-16 77,-24 24,-8 46,-15 66,-21 1,2 2,4 3,6 2,2 3,4 5,7 2,2 4,4 5,5 2,2 4,3 6,4 -12,21 -25,46 -40,75 -15,29 -30,59 -46,91 -16,32 -31,64 -47,95 -15,32 -28,60 -41,85 -12,25 -22,45 -29,61 -7,16 -11,24 -11,24 -3,-4 -6,-9 -9,-14 -3,-5 -7,-10 -12,-16 -6,-7 -11,-12 -16,-16 -4,-5 -9,-9 -14,-13 23,-33 40,-63 53,-89 13,-27 24,-49 32,-67l-103 -121z"/>
   <path class="fil0" d="M6366 1635c13,-9 23,-16 32,-22 9,-7 18,-12 25,-18 8,-5 16,-11 23,-16 6,-5 14,-11 23,-17 8,-7 18,-14 29,-22 11,-8 24,-18 40,-30 2,5 4,9 6,13 2,5 6,10 11,17 5,8 9,13 12,17 4,4 7,7 12,11 -33,20 -64,41 -95,62 -31,20 -62,42 -93,63 -24,17 -44,31 -61,44 -17,12 -32,23 -46,33 -13,9 -25,18 -35,26 -10,8 -20,15 -29,23 -3,-6 -6,-11 -9,-17 -3,-6 -6,-12 -10,-18 -5,-6 -8,-10 -12,-14 -4,-4 -7,-7 -11,-11 15,-9 28,-17 40,-24 12,-8 25,-16 38,-25 14,-9 29,-19 46,-31 17,-11 39,-26 64,-44z"/>
   <path class="fil0" d="M6552 1798c-22,13 -42,24 -59,34 -16,9 -32,18 -45,26 -14,8 -26,16 -38,23 -11,7 -22,13 -33,20 -11,7 -22,14 -33,21 -11,7 -24,15 -38,24 -1,-4 -2,-8 -3,-12 -2,-4 -4,-8 -7,-13 -2,-5 -5,-9 -7,-12 -3,-2 -5,-5 -8,-8 8,-3 19,-8 33,-15 15,-7 31,-15 48,-24 18,-9 36,-18 54,-27 19,-10 35,-19 49,-27 6,-3 15,-8 28,-15 14,-8 27,-16 42,-24 14,-8 28,-16 41,-23 13,-8 22,-13 27,-16l66 -36c1,2 1,3 2,5 0,1 1,3 2,4 1,2 2,4 3,5 1,2 3,4 4,6l-11 30c-2,6 -5,12 -7,18 -2,6 -4,13 -7,21 -2,8 -5,16 -8,26 -3,10 -7,21 -11,34 -10,30 -18,55 -24,76 -7,22 -13,40 -18,57 -5,16 -10,31 -14,44 -4,13 -8,26 -12,39 -4,13 -8,27 -12,40 -5,14 -9,31 -15,49l21 -11c35,-20 65,-37 90,-50 25,-14 47,-27 67,-38 20,-12 38,-23 55,-34 17,-10 35,-22 54,-35 1,3 2,7 3,11 1,4 3,8 5,12 3,5 5,9 8,12 3,4 6,7 9,10 -43,18 -84,37 -125,58 -40,22 -80,43 -120,65 -11,6 -23,13 -36,20 -13,8 -26,15 -40,23 -13,7 -26,15 -38,22 -13,7 -24,14 -33,20 -1,-2 -2,-4 -3,-6 0,-2 -1,-3 -2,-5 -1,-2 -2,-3 -3,-4 -1,-1 -2,-3 -3,-4 2,-5 4,-13 8,-23 4,-10 8,-21 13,-34 4,-13 9,-28 14,-43 5,-15 10,-30 15,-45 4,-14 9,-29 13,-42 4,-14 7,-25 9,-35 2,-7 4,-14 6,-21 2,-8 4,-15 6,-22l53 -170 -35 19z"/>
   <path class="fil0" d="M6763 2311c27,-11 53,-21 77,-31 25,-10 47,-19 67,-27 -13,-31 -24,-57 -34,-78 -10,-21 -18,-38 -26,-50 3,0 7,-1 10,-2 3,0 7,-2 11,-3 5,-2 9,-4 12,-6 2,-1 5,-3 8,-5 3,9 7,21 11,34 5,14 10,28 16,42 5,15 11,30 17,44 6,14 11,28 15,39 6,15 12,29 18,44 6,15 11,29 17,43 6,13 11,26 17,38 5,12 10,22 15,31 -3,1 -7,1 -10,2 -4,1 -8,2 -12,4 -4,2 -8,4 -11,5 -3,2 -6,4 -8,6 -3,-10 -7,-25 -13,-45 -6,-20 -16,-48 -30,-83 -20,7 -41,15 -61,23 -20,8 -41,16 -60,24 -18,7 -37,14 -57,22 -20,8 -41,16 -63,25 -21,9 -43,18 -65,27 -22,10 -44,20 -65,30 -3,-11 -5,-19 -7,-26 -2,-6 -4,-11 -5,-13 -2,-7 -5,-13 -8,-18 -3,-5 -6,-9 -7,-11 33,-11 70,-23 111,-39 40,-15 80,-30 120,-46z"/>
   <path class="fil0" d="M7019 2900c12,-3 23,-7 32,-12 10,-6 18,-13 23,-23 8,-13 12,-28 12,-45 0,-17 -1,-33 -5,-48 -1,-5 -3,-11 -5,-18 -1,-6 -4,-12 -6,-18 -26,6 -55,13 -86,20 -30,7 -62,14 -94,22 3,16 7,32 12,49 5,16 12,31 22,44 9,13 22,22 37,28 15,6 35,7 58,1zm22 66c-14,3 -27,4 -39,3 -12,-1 -23,-4 -32,-8 -10,-4 -19,-8 -26,-14 -8,-6 -14,-11 -20,-16 -7,-7 -14,-15 -19,-25 -6,-9 -11,-19 -15,-30 -5,-10 -9,-21 -12,-31 -3,-11 -6,-21 -8,-31 -1,-5 -2,-10 -3,-15 -1,-4 -2,-9 -3,-14 -21,4 -40,9 -57,13 -17,4 -33,8 -47,11 -15,4 -29,8 -42,12 -14,4 -28,8 -43,12 0,-5 0,-11 -1,-16 0,-5 -1,-12 -3,-21 -2,-8 -4,-14 -6,-18 -2,-5 -4,-9 -5,-13 44,-8 87,-17 130,-27 44,-9 87,-19 131,-29 22,-5 42,-10 58,-14 16,-4 30,-7 42,-11 12,-3 23,-6 33,-9 10,-3 21,-6 32,-10 1,12 4,27 8,43 3,16 8,36 14,60 5,23 9,45 13,65 3,20 3,38 -1,54 -4,21 -13,38 -27,52 -14,13 -31,22 -52,27z"/>
   <path class="fil0" d="M6983 3121c2,25 6,50 9,74 3,24 8,49 14,73 -3,0 -6,-1 -10,-1 -3,0 -7,1 -11,1 -4,1 -7,2 -10,3 -3,1 -6,2 -9,2 0,-16 -1,-33 -2,-51 -2,-18 -3,-33 -5,-47 -1,-8 -2,-16 -4,-25 -1,-9 -2,-17 -4,-25 -13,1 -27,3 -41,4 -14,2 -28,4 -41,5 -8,1 -17,3 -27,4 -9,2 -18,3 -27,4 -10,2 -18,3 -25,4 -8,2 -14,2 -18,3 3,20 6,43 10,69 4,27 11,58 19,95 -3,-1 -7,-1 -10,-1 -3,0 -7,1 -11,1 -5,1 -9,1 -11,2 -3,1 -6,2 -9,3 0,-15 -1,-29 -2,-44 -2,-14 -4,-29 -6,-43 -3,-25 -7,-49 -11,-73 -4,-24 -8,-48 -12,-72 12,-1 24,-2 36,-2 13,-1 27,-2 44,-4 16,-1 36,-4 59,-6 24,-3 52,-6 87,-11 15,-2 32,-4 50,-7 18,-2 36,-5 54,-8 18,-3 36,-6 54,-8 18,-3 34,-6 50,-9 0,22 2,44 5,66 2,21 5,43 8,65 2,16 4,32 7,48 2,16 6,31 9,47 -3,0 -7,-1 -10,0 -4,0 -8,0 -12,0 -5,1 -8,2 -11,2 -2,1 -5,2 -9,4 1,-6 1,-13 1,-19 0,-6 0,-13 0,-20 0,-8 -1,-17 -2,-27 0,-10 -2,-21 -4,-35 -1,-11 -2,-21 -3,-29 -1,-8 -3,-19 -6,-32 -6,1 -12,1 -17,1 -4,1 -9,1 -14,2 -5,1 -11,1 -18,2 -6,1 -14,2 -23,3 -10,2 -18,3 -25,4 -7,1 -13,1 -19,2 -5,1 -11,2 -16,3 -6,1 -13,2 -21,3z"/>
   <path class="fil0" d="M7014 3467c29,-1 57,-2 83,-3 27,-1 50,-2 72,-3 -2,-34 -3,-62 -5,-85 -2,-23 -5,-42 -8,-55 4,0 7,1 10,1 4,0 8,1 12,0 5,0 10,0 13,-1 3,0 6,-1 9,-2 0,10 0,22 -1,36 0,15 0,30 1,45 0,16 0,31 1,47 0,16 1,30 1,42 1,16 1,32 2,47 0,16 1,31 1,46 1,15 2,29 3,42 1,13 2,24 3,34 -3,0 -6,-1 -10,-1 -3,0 -7,0 -12,0 -5,0 -9,0 -12,1 -3,0 -7,1 -10,2 1,-10 2,-25 4,-46 1,-22 1,-51 0,-89 -22,0 -44,1 -66,1 -22,1 -43,1 -65,2 -19,1 -39,1 -61,2 -21,0 -44,1 -67,2 -23,1 -46,2 -70,3 -24,2 -48,4 -72,6 1,-11 2,-20 2,-27 0,-6 0,-11 0,-14 0,-7 -1,-13 -2,-19 -1,-6 -2,-10 -2,-13 35,1 74,2 117,1 43,0 86,-1 129,-2z"/>
   <path class="fil0" d="M7012 3795c-2,25 -4,50 -6,75 -1,25 -1,49 0,74 -3,-1 -6,-2 -9,-2 -4,-1 -7,-1 -12,-2 -3,0 -7,0 -10,1 -3,0 -6,0 -10,1 3,-17 6,-34 8,-51 3,-18 4,-33 5,-47 1,-8 1,-17 2,-26 0,-8 0,-17 0,-25 -13,-1 -27,-2 -41,-4 -14,-1 -28,-2 -41,-3 -9,0 -18,-1 -27,-1 -10,-1 -19,-1 -28,-1 -9,-1 -18,-1 -25,-1 -8,-1 -14,-1 -18,-1 -2,20 -3,43 -4,70 -1,26 -1,58 0,96 -3,-1 -6,-2 -9,-2 -3,-1 -7,-2 -12,-2 -5,0 -8,0 -11,0 -3,0 -6,1 -9,1 3,-14 5,-29 6,-43 1,-15 2,-29 3,-44 2,-24 3,-49 4,-73 1,-25 2,-49 2,-74 12,2 24,4 36,5 12,2 27,4 43,5 17,2 37,4 60,6 23,2 52,4 87,6 15,1 32,2 50,3 18,1 37,2 55,3 19,1 37,2 55,2 18,1 34,1 50,1 -4,23 -6,44 -8,66 -2,22 -3,44 -5,66 -1,16 -2,32 -2,48 -1,16 -1,32 0,48 -4,-1 -7,-2 -11,-3 -3,0 -7,-1 -11,-1 -5,0 -8,0 -11,0 -3,0 -6,1 -10,1 2,-6 4,-11 5,-18 1,-6 2,-12 4,-20 1,-7 2,-16 3,-26 1,-10 2,-22 3,-35 1,-12 2,-22 2,-29 1,-8 1,-19 1,-33 -6,-1 -12,-1 -16,-2 -5,0 -10,-1 -15,-1 -5,0 -11,-1 -18,-1 -6,-1 -14,-1 -23,-2 -10,-1 -19,-1 -25,-2 -7,0 -13,0 -19,-1 -6,0 -11,0 -17,-1 -6,0 -13,0 -21,-1z"/>
   <path class="fil0" d="M7032 4280c18,3 33,2 45,-3 12,-5 22,-12 30,-22 7,-10 13,-21 17,-33 4,-12 7,-24 9,-35 1,-10 2,-17 3,-24 0,-6 0,-12 0,-16 -14,-3 -28,-6 -42,-9 -14,-2 -28,-5 -42,-7 -7,-1 -15,-3 -24,-4 -8,-2 -16,-3 -25,-4 -8,-1 -15,-2 -22,-4 -6,-1 -11,-2 -15,-2 -1,5 -3,10 -4,15 0,4 -1,10 -2,18 -1,7 -2,17 -2,30 -1,13 0,26 4,39 4,14 11,26 22,38 10,11 26,19 48,23zm-339 47c2,-6 3,-12 5,-17 2,-6 3,-12 5,-19 1,-6 2,-13 2,-21 0,-7 1,-15 2,-24 26,-11 49,-22 71,-31 21,-10 42,-20 61,-29 19,-10 36,-19 53,-28 17,-10 34,-19 50,-29l3 -16c-23,-4 -51,-9 -84,-14 -33,-6 -75,-12 -126,-18 2,-5 4,-11 6,-17 2,-6 3,-12 4,-18 2,-9 2,-15 2,-20 0,-4 0,-9 0,-14 37,8 74,16 112,23 38,7 80,15 126,23 29,5 60,10 92,14 32,5 66,10 101,15 -3,12 -6,22 -8,31 -1,9 -3,16 -4,23 0,3 -1,8 -2,15 -2,7 -3,14 -4,22 -1,7 -2,15 -3,21 -1,7 -2,12 -3,14 -3,19 -6,35 -10,47 -3,13 -7,23 -10,31 -4,9 -8,16 -12,21 -5,6 -9,10 -14,15 -12,10 -24,16 -38,19 -13,2 -28,2 -43,-1 -22,-3 -39,-11 -51,-23 -12,-11 -21,-24 -27,-38 -6,-14 -9,-29 -10,-43 -1,-15 -2,-27 -2,-37 -6,3 -16,8 -30,15 -14,7 -29,15 -46,23 -17,9 -35,19 -53,28 -18,10 -34,19 -50,28 -16,8 -29,15 -39,21 -11,5 -17,9 -19,10l-7 -2z"/>
   <path class="fil0" d="M6963 4673c7,-1 14,-2 21,-4 8,-2 16,-5 23,-10 8,-5 15,-12 21,-20 7,-9 12,-21 16,-34 5,-17 6,-31 4,-43 -2,-11 -7,-21 -12,-29 -6,-8 -13,-14 -20,-18 -8,-4 -14,-7 -19,-8 -12,-4 -23,-5 -33,-3 -9,3 -18,6 -26,12 -7,5 -14,11 -21,19 -6,7 -12,14 -17,21 -11,14 -21,26 -28,35 -7,10 -13,17 -18,23 -5,6 -10,11 -15,15 -4,4 -9,8 -15,12 -8,5 -16,9 -24,11 -8,3 -15,4 -23,5 -8,0 -15,0 -22,-1 -7,-1 -13,-2 -19,-4 -16,-4 -31,-12 -45,-22 -14,-10 -26,-23 -36,-40 -9,-16 -15,-35 -18,-56 -3,-22 0,-46 8,-73 6,-20 14,-39 25,-57 11,-17 24,-32 40,-44 14,9 26,15 35,19 9,4 15,7 19,8l-2 8c-21,4 -40,13 -57,26 -17,14 -28,33 -36,57 -4,16 -6,30 -4,43 2,13 5,24 10,33 6,10 13,18 22,24 8,6 18,11 27,14 12,3 23,4 33,3 10,-2 19,-5 28,-10 8,-5 16,-12 23,-19 8,-8 15,-17 22,-25 12,-16 22,-29 30,-38 8,-9 14,-16 19,-22 5,-6 9,-10 13,-13 4,-3 8,-6 13,-9 11,-8 25,-13 40,-13 15,-1 30,0 44,4 19,6 35,15 48,26 13,12 22,25 28,40 7,16 10,32 10,50 0,18 -2,35 -7,53 -4,12 -8,23 -13,33 -5,11 -11,20 -16,28 -6,9 -11,16 -16,21 -5,6 -10,10 -13,13 -2,-2 -5,-4 -8,-7 -4,-3 -7,-6 -12,-9 -4,-3 -9,-6 -14,-9 -5,-3 -10,-6 -15,-8l2 -8z"/>
   <path class="fil0" d="M6809 5007c13,5 26,7 37,6 12,-1 22,-5 31,-11 10,-6 18,-14 25,-23 7,-10 13,-21 18,-32 3,-6 5,-13 8,-20 2,-8 4,-15 6,-22 -23,-11 -48,-22 -73,-33 -13,-5 -25,-10 -38,-15 -13,-5 -25,-10 -38,-15 -4,9 -8,17 -11,24 -3,6 -5,12 -7,18 -2,5 -4,10 -5,14 -1,5 -2,10 -3,15 -4,22 -1,41 8,57 9,17 23,29 42,37zm-197 -65c21,9 40,12 56,8 15,-4 28,-11 39,-21 10,-10 18,-21 25,-33 6,-12 11,-22 14,-29 2,-6 4,-11 6,-16 2,-5 4,-12 7,-20 -15,-6 -29,-12 -44,-19 -15,-6 -30,-12 -45,-19 -28,-11 -57,-22 -85,-33 -2,6 -4,10 -6,14 -2,4 -5,10 -7,16 -2,5 -5,11 -7,18 -3,7 -5,13 -7,20 -2,7 -4,14 -5,21 -2,7 -2,13 -1,19 1,11 3,20 7,28 4,8 9,15 15,21 5,6 11,11 18,15 6,4 13,8 20,10zm180 129c-17,-7 -30,-17 -38,-28 -8,-12 -13,-24 -16,-37 -3,-12 -4,-24 -3,-35 1,-11 1,-20 2,-25 1,-5 1,-8 1,-9 0,-2 -1,-2 -2,-3 0,0 -1,0 -2,2 0,1 -2,4 -5,9 -10,18 -21,32 -33,43 -12,10 -24,17 -37,22 -12,4 -25,6 -37,5 -13,-1 -24,-4 -35,-8 -8,-4 -16,-8 -24,-14 -9,-6 -16,-13 -22,-22 -7,-8 -12,-18 -17,-28 -5,-11 -8,-22 -9,-35 -2,-15 -1,-31 3,-49 4,-17 10,-35 17,-52 1,-3 3,-7 6,-14 3,-6 5,-13 8,-20 3,-7 6,-14 9,-20 3,-6 5,-10 6,-13 3,-7 6,-14 8,-22 3,-7 6,-18 11,-31 15,7 28,14 39,19 11,5 23,11 35,16 13,6 26,12 41,18 16,7 34,15 57,24 39,16 78,32 116,47 39,15 78,29 117,44 -5,10 -10,20 -14,30 -5,10 -9,21 -13,31 -9,22 -17,41 -24,57 -7,16 -13,30 -20,41 -6,12 -12,21 -19,29 -6,8 -13,14 -20,19 -13,8 -27,13 -42,15 -15,2 -30,0 -44,-6z"/>
   <path class="fil0" d="M6591 5114c25,14 46,26 64,37 17,10 33,19 46,26 13,7 24,14 33,19 10,6 19,11 28,15 9,5 18,9 27,14 9,5 20,10 31,16 -4,5 -8,10 -11,15 -4,5 -8,10 -11,15 -3,6 -6,12 -8,18 -3,5 -5,11 -7,16 -17,-12 -36,-24 -56,-36 -20,-13 -39,-25 -57,-36 -18,-11 -34,-20 -47,-28 -13,-7 -21,-12 -24,-13 -17,-10 -33,-19 -46,-27 -14,-7 -27,-13 -39,-18 -12,-4 -23,-8 -33,-9 -10,-2 -20,-2 -30,0 -16,2 -32,10 -47,22 -16,13 -29,28 -39,45 -2,4 -6,11 -10,21 -5,11 -8,24 -9,38 -2,15 0,30 4,47 5,16 16,32 32,48 8,7 18,15 29,23 11,8 21,16 32,23 11,6 20,13 29,18 8,5 14,9 18,11 5,2 15,8 29,16 15,8 31,17 48,26 17,9 35,18 51,27 17,8 31,14 40,18 -3,3 -5,6 -8,10 -3,3 -6,7 -10,14 -3,6 -6,11 -7,15 -1,3 -2,7 -3,11 -24,-19 -50,-37 -81,-57 -31,-19 -66,-41 -107,-64 -13,-8 -27,-16 -40,-25 -14,-9 -26,-18 -37,-28 -12,-10 -22,-21 -31,-33 -9,-13 -15,-26 -19,-41 -6,-18 -7,-39 -5,-63 3,-23 13,-51 31,-82 6,-11 13,-21 22,-33 8,-11 18,-21 29,-30 11,-10 23,-18 37,-25 14,-7 28,-12 45,-13 9,-2 19,-1 28,0 9,1 18,3 27,7 10,3 19,7 30,12 10,5 21,11 32,18z"/>
   <path class="fil0" d="M6327 5791c14,12 28,18 41,19 13,1 25,-1 36,-5 12,-5 22,-12 31,-22 9,-9 17,-18 24,-27 6,-7 10,-14 14,-19 3,-6 6,-11 8,-14 -11,-10 -22,-19 -33,-28 -12,-8 -23,-17 -34,-26 -6,-4 -12,-9 -19,-14 -7,-5 -14,-11 -21,-15 -6,-5 -12,-10 -18,-14 -5,-4 -9,-7 -12,-9 -4,4 -7,8 -10,11 -3,4 -6,9 -10,15 -4,6 -10,15 -16,26 -7,11 -12,23 -15,37 -3,13 -2,28 2,43 4,15 14,29 32,42zm-323 -115c5,-5 9,-9 13,-13 4,-4 9,-9 13,-14 4,-6 8,-11 12,-18 4,-6 8,-13 13,-21 28,3 53,5 77,6 24,1 46,2 67,3 22,0 42,0 61,0 19,-1 38,-2 57,-2l10 -14c-18,-13 -41,-30 -67,-51 -27,-20 -62,-45 -104,-74 5,-4 9,-8 14,-13 4,-4 8,-9 12,-14 5,-6 8,-12 11,-16 2,-4 4,-8 6,-13 29,25 58,49 89,73 30,24 64,50 100,78 24,18 49,37 75,56 26,19 54,39 83,60 -9,9 -16,17 -21,24 -6,7 -11,13 -15,18 -2,3 -5,7 -9,12 -4,6 -9,12 -13,18 -5,6 -9,12 -13,18 -5,5 -8,9 -9,11 -12,15 -22,27 -31,37 -9,9 -16,17 -24,22 -7,6 -13,10 -20,13 -6,3 -13,5 -19,6 -15,4 -29,4 -42,0 -13,-4 -26,-11 -38,-20 -18,-14 -30,-29 -35,-45 -5,-16 -7,-31 -6,-46 2,-15 6,-30 11,-43 6,-14 11,-25 16,-33 -7,-1 -18,-1 -34,-2 -15,0 -33,0 -52,0 -19,0 -38,0 -59,0 -20,1 -39,1 -57,1 -18,0 -33,1 -45,1 -12,0 -19,0 -21,0l-6 -5z"/>
   <path class="fil0" d="M5964 6203c7,2 15,3 26,5 11,1 23,1 36,-1 13,-2 27,-7 43,-15 15,-7 31,-19 47,-36 17,-16 29,-35 38,-55 9,-20 14,-42 14,-65 0,-23 -6,-46 -16,-70 -11,-24 -27,-47 -51,-70 -23,-24 -48,-41 -72,-51 -25,-11 -50,-16 -73,-16 -24,0 -46,5 -68,14 -21,10 -40,23 -56,39 -2,1 -5,5 -9,10 -5,5 -10,11 -16,18 -5,8 -10,17 -15,26 -5,10 -9,20 -11,31 17,18 32,33 42,43 11,11 20,20 28,27 7,7 14,13 20,19 5,5 12,11 20,17 -4,3 -9,6 -13,9 -5,4 -10,9 -16,15 -5,5 -10,10 -12,14 -3,4 -6,8 -9,12 -12,-15 -25,-29 -38,-44 -13,-15 -28,-31 -45,-48 -5,-5 -11,-11 -17,-16 -6,-6 -11,-11 -17,-15 7,-14 14,-28 20,-40 6,-13 13,-25 21,-37 8,-13 16,-24 25,-36 10,-12 21,-24 33,-37 25,-24 51,-43 80,-56 28,-13 57,-20 86,-20 28,-1 57,5 84,16 28,12 54,30 78,54 21,21 38,44 50,70 13,26 19,54 19,82 0,29 -6,59 -20,89 -13,30 -34,60 -64,90 -21,21 -45,40 -71,57 -27,17 -52,29 -76,37 -5,-16 -11,-28 -16,-38 -6,-10 -11,-18 -14,-23l5 -5z"/>
   <path class="fil0" d="M5631 6447c-12,9 -25,15 -39,18 -14,3 -27,3 -41,1 -14,-2 -26,-7 -39,-14 -12,-8 -22,-18 -31,-30 -9,-12 -14,-25 -17,-39 -3,-14 -4,-28 -1,-41 2,-14 7,-26 14,-39 7,-12 17,-22 29,-31 12,-8 25,-14 39,-17 14,-3 28,-3 41,-1 14,2 26,7 39,14 12,8 22,17 31,29 9,13 15,26 17,40 3,14 4,27 2,41 -3,13 -8,26 -15,38 -8,12 -17,23 -29,31z"/>
   <path class="fil0" d="M2593 6592l-13 24c-1,4 -4,13 -8,27 -38,-23 -82,-44 -132,-65l-53 127 61 25c24,10 49,18 75,25 -7,11 -11,19 -13,24 -2,5 -5,14 -8,27 -12,-7 -24,-14 -36,-20 -11,-6 -23,-11 -34,-16l-62 -25 -62 149c28,12 52,21 73,28 22,8 44,15 67,21l-14 24c-1,4 -4,12 -7,26l-225 -93 167 -401 224 93z"/>
   <path class="fil0" d="M2729 7090l-45 -16c-7,-1 -15,-2 -24,-4 -9,-1 -17,-3 -23,-5l100 -379c-32,-9 -72,-16 -117,-22 6,-13 9,-22 10,-26 1,-3 3,-12 4,-26l318 84c-6,13 -9,22 -10,25 -1,4 -2,13 -4,28 -48,-19 -84,-32 -108,-39l-101 380z"/>
   <path class="fil0" d="M3007 6709c9,1 17,2 24,4 8,2 15,3 23,5 7,0 15,0 24,1 9,0 17,1 24,2l-24 180c-7,59 -11,99 -10,118 0,20 2,35 5,45 3,11 9,22 18,34 17,21 40,33 69,36 20,3 37,3 51,-1 15,-3 28,-9 39,-19 12,-10 22,-23 32,-41 10,-18 20,-61 29,-130l25 -192c8,3 16,4 25,5 8,2 17,2 25,2l-29 225c-2,15 -4,27 -6,39 -2,11 -5,25 -9,41 -4,17 -12,34 -24,52 -12,17 -29,32 -52,43 -33,18 -75,25 -124,18 -28,-4 -54,-10 -78,-20 -23,-10 -43,-24 -60,-42 -16,-18 -27,-41 -31,-68 -3,-25 -3,-51 0,-79l34 -258z"/>
   <path class="fil0" d="M4047 7125c6,0 18,-2 34,-5 17,-3 29,-5 36,-6 10,-1 21,-3 34,-6 14,-3 27,-6 39,-10l1 28c0,4 2,13 6,27l-240 30 -54 -431c9,-1 17,-2 25,-2 7,0 15,-1 23,-1 7,-2 15,-3 24,-5 9,-2 16,-3 23,-4l49 385z"/>
   <path class="fil0" d="M4445 6655l3 27c1,4 4,13 9,26 -44,5 -92,13 -145,25l30 133 65 -14c25,-6 50,-14 75,-24 1,14 2,23 3,28 1,5 4,14 9,26 -13,1 -27,3 -40,5 -13,2 -26,4 -38,7l-64 15 36 158c29,-7 54,-14 76,-20 21,-6 43,-13 65,-22l3 28c1,4 4,12 10,26l-237 54 -97 -424 237 -54z"/>
   <path class="fil0" d="M4817 6994l-46 13c-7,3 -14,6 -22,10 -9,3 -16,6 -23,8l-126 -372c-32,11 -68,27 -109,47 -3,-14 -5,-23 -6,-27 -1,-3 -5,-11 -12,-24l312 -106c2,14 4,23 5,27 2,3 6,11 12,24 -50,11 -87,21 -111,29l126 371z"/>
   <path class="fil0" d="M4843 6515c8,-3 16,-6 23,-9 7,-2 14,-5 22,-7 6,-4 13,-8 21,-12 8,-4 15,-8 21,-10l176 400 -45 17c-6,3 -13,7 -21,12 -8,4 -15,7 -21,10l-176 -401z"/>
   <path class="fil0" d="M3800 6768l60 -6 -37 131 -50 5 27 -130zm-97 10l58 -6 -32 130 -48 5 22 -129z"/>
   <path class="fil0" d="M5117 6401l54 -26 10 135 -46 22 -18 -131zm-88 42l52 -25 14 133 -44 21 -22 -129z"/>
  </g>
 </g>
</svg>
